<?xml version="1.0" encoding="utf-8"?>
<svg viewBox="0 0 499 379" xmlns="http://www.w3.org/2000/svg">
  <g id="layer1" transform="matrix(1, 0, 0, 1, -1.0811363458633423, -1.621704339981079)">
    <g id="g1" transform="matrix(1.1800196,0,0,1.1800196,-305.00749,-133.85045)">
      <path fill="#ff8211" opacity="1" stroke="none" d="M 402.829 427.652 C 380.03 422.796 357.128 420.673 336.544 412.626 C 284.284 392.197 254.996 337.1 259.931 278.913 C 265.156 217.31 298.355 171.939 345.384 135.403 C 379.768 108.688 417.958 109.499 456.01 125.814 C 519.43 153.003 578.473 188.206 635.031 227.625 C 675.42 255.776 688.364 294.578 680.165 342.067 C 676.879 361.106 672.55 379.564 661.339 395.665 C 642.027 423.399 613.595 434.469 581.576 435.671 C 558.601 436.535 535.483 433.335 512.416 432.199 C 481.25 430.666 450.072 429.359 418.896 427.999 C 413.865 427.779 408.821 427.787 402.829 427.652 Z" id="path3"/>
      <path/>
    </g>
  </g>
</svg>